/* XPM */
static char * tick16_xpm[] = {
"16 16 6 1",
" 	c None",
".	c #000000",
"+	c #009900",
"@	c #00FF00",
"#	c #CCCCCC",
"$	c #FFFFFF",
"                ",
" .............. ",
" .$$$$$$$$$$$$. ",
" .$$$$$$$$$$$$. ",
" .$$$$$$$$$@$$. ",
" .$$$$$$$$@@#$. ",
" .$$$$$$$@@+#$. ",
" .$$@$$$@@+##$. ",
" .$$@@$@@+##$$. ",
" .$$+@@@+##$$$. ",
" .$$$+@+##$$$$. ",
" .$$$$+##$$$$$. ",
" .$$$$$#$$$$$$. ",
" .$$$$$$$$$$$$. ",
" .............. ",
"                "};
