/* XPM */ 
static const char * boxi_xpm[] = {
"32 32 444 2",
"  	c None",
"! 	c black",
"# 	c #3262A2",
"$ 	c #4975AE",
"% 	c #4C79B0",
"& 	c #3D6CA9",
"' 	c #3F6DA9",
"( 	c #799CC6",
") 	c #9BB7D8",
"* 	c #A5C0DD",
"+ 	c #A6C0DD",
", 	c #9EBADA",
"- 	c #8BABD0",
". 	c #6A90BF",
"0 	c #4472AC",
"1 	c #2F60A2",
"2 	c #3363A4",
"3 	c #537CB2",
"4 	c #B4CBE3",
"5 	c #CADDEF",
"6 	c #C4D8EC",
"7 	c #BDD3E9",
"8 	c #B6CEE6",
"9 	c #B2CBE4",
": 	c #B3CCE5",
"; 	c #B6CEE7",
"< 	c #ABC5E1",
"= 	c #7DA0C9",
"> 	c #5B85B9",
"? 	c #4977B0",
"@ 	c #4773AD",
"A 	c #BFD4E9",
"B 	c #C5D9EB",
"C 	c #A5BFDC",
"D 	c #9BB7D7",
"E 	c #9FBADA",
"F 	c #AEC7E2",
"G 	c #B2CBE5",
"H 	c #A5C2DF",
"I 	c #A6C2DF",
"J 	c #AFCAE5",
"K 	c #99B8DA",
"L 	c #507BB2",
"M 	c #628CBE",
"N 	c #8CAFD5",
"O 	c #4370AB",
"P 	c #94B1D4",
"Q 	c #A2BCDA",
"R 	c #507BB3",
"S 	c #3C6CA9",
"T 	c #2F61A1",
"U 	c #3062A2",
"V 	c #3D6CA8",
"W 	c #557EB4",
"X 	c #84A5CC",
"Y 	c #A3C1E0",
"Z 	c #80A8D2",
"[ 	c #7AA4D1",
"] 	c #8BB0D7",
"^ 	c #85ACD5",
"_ 	c #7BA3CE",
"` 	c #4A75AE",
"a 	c #4979B3",
"b 	c #80A1C9",
"c 	c #4472AE",
"d 	c #4A78B3",
"e 	c #3A6AA8",
"f 	c #3C6DAA",
"g 	c #6E97C6",
"h 	c #88AED6",
"i 	c #78A3D0",
"j 	c #739FCE",
"k 	c #6F9DCE",
"l 	c #7EA5D0",
"m 	c #4A76AE",
"n 	c #4673AE",
"o 	c #4C79B2",
"p 	c #618CC4",
"q 	c #5682BB",
"r 	c #648CBC",
"s 	c #729ECE",
"t 	c #729FCF",
"u 	c #7EA5CF",
"v 	c #4975AF",
"w 	c #365885",
"x 	c #5C7EAB",
"y 	c #7B8EA6",
"z 	c #6B82A0",
"{ 	c #5E6E85",
"| 	c #66707D",
"} 	c #65717F",
"~ 	c #737476",
" !	c #767675",
"!!	c #69727E",
"#!	c #6C6E76",
"$!	c #4D658C",
"%!	c #7EA4D1",
"&!	c #7CA6D2",
"'!	c #729FCE",
"(!	c #709ECE",
")!	c #85ADD8",
"*!	c #566D8A",
"+!	c #7A7267",
",!	c #A8B5C7",
"-!	c #C4CEDD",
".!	c #F2EEEB",
"0!	c #ECEAE9",
"1!	c #F3EFEB",
"2!	c #F5F0EA",
"3!	c #EBE9E6",
"4!	c #E2E2E3",
"5!	c #F0EDE8",
"6!	c #9DB1CB",
"7!	c #6B94C4",
"8!	c #87ACD5",
"9!	c #769FCD",
":!	c #78A1CF",
";!	c #7CA4D1",
"<!	c #749DCC",
"=!	c #A6B6CB",
">!	c #857E75",
"?!	c #A8A7A6",
"@!	c #D1DBEA",
"A!	c #839EBF",
"B!	c #96ADCA",
"C!	c #92AAC9",
"D!	c #90A8C8",
"E!	c #91A9C8",
"F!	c #839FC3",
"G!	c #8CA3C2",
"H!	c #E2E1DF",
"I!	c #D7D9DB",
"J!	c #9AADC6",
"K!	c #9CAFC7",
"L!	c #9FB0C7",
"M!	c #9FB1C8",
"N!	c #9EB0C7",
"O!	c #A1B2C8",
"P!	c #8DA2BE",
"Q!	c #C5CFDD",
"R!	c #B7B6B5",
"S!	c #1B1E22",
"T!	c #494B4D",
"U!	c #DAD6D2",
"V!	c #A9BBD2",
"W!	c #8BADD3",
"X!	c #9FBEDF",
"Y!	c #99B9DB",
"Z!	c #97B8DB",
"[!	c #A6C3E2",
"]!	c #6F95C3",
"^!	c #BAC5D3",
"_!	c #E5E4E2",
"`!	c #DDDDDE",
"a!	c #E8E5E1",
"b!	c #E7E4E0",
"c!	c #E3E1DE",
"d!	c #DFDEDC",
"e!	c #E9E4DC",
"f!	c #B8C1CD",
"g!	c #98ACC5",
"h!	c #E0DDD9",
"i!	c #68696A",
"j!	c #808182",
"k!	c #F7F5F1",
"l!	c #A5B4C9",
"m!	c #96B5D9",
"n!	c #9BBCDE",
"o!	c #96B7DA",
"p!	c #A2C1DF",
"q!	c #7EA0C9",
"r!	c #BAC4D2",
"s!	c #EEEAE5",
"t!	c #D9DADC",
"u!	c #DFDFDF",
"v!	c #DEDFE0",
"w!	c #DEDFE1",
"x!	c #DFDFE0",
"y!	c #D1D7DE",
"z!	c #CCD4DD",
"{!	c #E5E3DF",
"|!	c #94A9C3",
"}!	c #7490B5",
"~!	c #F4F0EA",
" #	c #929394",
"!#	c #1C1C1C",
"##	c #B0B1B2",
"$#	c #F8F5F2",
"%#	c #A4B4C9",
"&#	c #92B2D7",
"'#	c #9CBCDE",
"(#	c #95B6DA",
")#	c #A2BFDF",
"*#	c #A5B5CA",
"+#	c #DBDBDB",
",#	c #E9E6E2",
"-#	c #E3E2E1",
".#	c #DFE0E0",
"0#	c #DCDDDF",
"1#	c #E6E3DE",
"2#	c #B6C6D8",
"3#	c #C9D5E2",
"4#	c #E0E2E2",
"5#	c #5681B5",
"6#	c #829CBE",
"7#	c #EBE7E1",
"8#	c #BEBEBF",
"9#	c #4C4C4C",
":#	c #6A6A6A",
";#	c #D9DADB",
"<#	c #EDEAE6",
"=#	c #A9B9CF",
">#	c #8FB0D5",
"?#	c #9DBEDE",
"@#	c #93B5D9",
"A#	c #9DBDDE",
"B#	c #749CCB",
"C#	c #7193BE",
"D#	c #A6B5C9",
"E#	c #CFD1D4",
"F#	c #DEDBD8",
"G#	c #E2DED9",
"H#	c #BCC7D4",
"I#	c #98B6D9",
"J#	c #C4D2E1",
"K#	c #7697C1",
"L#	c #3871B4",
"M#	c #A3B4C9",
"N#	c #E0DDD8",
"O#	c #DCDCDD",
"P#	c #7B7B7B",
"Q#	c #959595",
"R#	c #ECEDEE",
"S#	c #E5E2DE",
"T#	c #A5B6CB",
"U#	c #93B4D8",
"V#	c #9FBDDD",
"W#	c #95B5D9",
"X#	c #96B8DC",
"Y#	c #6B99CB",
"Z#	c #6A9ACC",
"[#	c #6D9BCE",
"]#	c #608FC4",
"^#	c #638CBD",
"_#	c #7696BC",
"`#	c #6C90BB",
"a#	c #4C7EBA",
"b#	c #6A92C3",
"c#	c #5382B9",
"d#	c #4A83C1",
"e#	c #4C7EB8",
"f#	c #C6C9CF",
"g#	c #D8D7D5",
"h#	c #E3E3E3",
"i#	c #A6A6A6",
"j#	c #444444",
"k#	c #C4C4C4",
"l#	c #E4E5E6",
"m#	c #E4E1DE",
"n#	c #A3B3C8",
"o#	c #94B4D9",
"p#	c #7E9CC1",
"q#	c #809BBD",
"r#	c #6E98C9",
"s#	c #6E9DCF",
"t#	c #6A99CC",
"u#	c #6294C8",
"v#	c #6596CA",
"w#	c #6295CB",
"x#	c #5B8FC8",
"y#	c #568AC4",
"z#	c #588BC3",
"{#	c #5388C2",
"|#	c #5A90C9",
"}#	c #417BBD",
"~#	c #879EBC",
" $	c #DBD8D4",
"!$	c #D3D4D5",
"#$	c #DADADA",
"$$	c #CDCDCD",
"%$	c #686868",
"&$	c #7C7C7C",
"'$	c #E6E6E6",
"($	c #D4D5D6",
")$	c #EAE7E2",
"*$	c #9FB1C9",
"+$	c #5C83B6",
",$	c #C8CBD0",
"-$	c #DBD8D5",
".$	c #9BABC0",
"0$	c #6B90BC",
"1$	c #6291C6",
"2$	c #6496CB",
"3$	c #6395CB",
"4$	c #6093C9",
"5$	c #6092C9",
"6$	c #5E92C9",
"7$	c #538AC6",
"8$	c #427ABA",
"9$	c #7693B8",
":$	c #D3D1CF",
";$	c #D1D1D1",
"<$	c #DDDDDD",
"=$	c #D0D0D0",
">$	c #E1E1E1",
"?$	c #8E8E8E",
"@$	c #A9A9A9",
"A$	c #EBEBEB",
"B$	c #D2D2D3",
"C$	c #E2E0DC",
"D$	c #AABACF",
"E$	c #B3BFCF",
"F$	c #E1DEDA",
"G$	c #CFD0D1",
"H$	c #D9D7D3",
"I$	c #C7C8CA",
"J$	c #99A9BF",
"K$	c #7493BB",
"L$	c #608BBD",
"M$	c #5787BF",
"N$	c #5285BF",
"O$	c #4F82BD",
"P$	c #4F80BA",
"Q$	c #6087B7",
"R$	c #9AAABE",
"S$	c #D4D2CF",
"T$	c #D5D5D5",
"U$	c #D7D7D7",
"V$	c #CECECE",
"W$	c #DCDCDC",
"X$	c #B7B7B7",
"Y$	c #464646",
"Z$	c #5F5F5F",
"[$	c #E0E0E0",
"]$	c #D8D8D8",
"^$	c #D9D9D9",
"_$	c #E6E4E3",
"`$	c #E3E3E4",
"a$	c #DFDFDE",
"b$	c #D5D6D7",
"c$	c #D3D3D3",
"d$	c #D7D4D1",
"e$	c #D1CFCC",
"f$	c #BFC2C6",
"g$	c #AEB6C2",
"h$	c #A6B2C2",
"i$	c #A9B4C3",
"j$	c #BAC0C8",
"k$	c #D5D4D2",
"l$	c #E2DFDC",
"m$	c #D7D6D6",
"n$	c #D6D6D6",
"o$	c #737373",
"p$	c #8B8B8B",
"q$	c #D3D4D4",
"r$	c #DFE0E1",
"s$	c #DEDFDF",
"t$	c #E1E0DF",
"u$	c #E4E2E0",
"v$	c #E6E4E1",
"w$	c #E8E5E2",
"x$	c #E6E5E3",
"y$	c #E1E2E2",
"z$	c #DCDDDE",
"{$	c #CFCFCF",
"|$	c #DEDEDE",
"}$	c #9F9F9F",
"~$	c #A1A1A1",
" %	c #EEEEEE",
"!%	c #E2E2E2",
"#%	c #E5E5E5",
"$%	c #E8E8E8",
"%%	c #EAEAEA",
"&%	c #EAEAEB",
"'%	c #E8E9E9",
"(%	c #E6E7E7",
")%	c #E4E5E5",
"*%	c #B3B3B3",
"+%	c #3E3E3E",
",%	c #9B9B9B",
"-%	c #D4D4D4",
".%	c #D2D2D2",
"0%	c #CCCCCC",
"1%	c #CBCBCB",
"2%	c #CACACA",
"3%	c #C9C9C9",
"4%	c #C8C8C8",
"5%	c #C7C7C7",
"6%	c #C5C5C5",
"7%	c #C2C2C2",
"8%	c #969696",
"9%	c #3F3F3F",
":%	c #9A9A9A",
";%	c #B0B0B0",
"<%	c #B2B2B2",
"=%	c #AEAEAE",
">%	c #ADADAD",
"?%	c #ACACAC",
"@%	c #ABABAB",
"A%	c #AAAAAA",
"B%	c #A7A7A7",
"C%	c #A5A5A5",
"D%	c #A4A4A4",
"E%	c #A2A2A2",
"F%	c #A0A0A0",
"G%	c #9E9E9E",
"H%	c #9D9D9D",
"I%	c #989898",
"J%	c #909090",
"K%	c #999999",
"L%	c #B9B9B9",
"M%	c #A3A3A3",
"N%	c #898989",
"O%	c #A8A8A8",
"P%	c #B5B5B5",
"Q%	c #AFAFAF",
"R%	c #B1B1B1",
"S%	c #434343",
"T%	c #838383",
"U%	c #979797",
"V%	c #B4B4B4",
"W%	c #8D8D8D",
"X%	c #BEBEBE",
"Y%	c #C3C3C3",
"Z%	c #C1C1C1",
"[%	c #BCBCBC",
"]%	c #B6B6B6",
"^%	c #8F8F8F",
"_%	c #797979",
"`%	c #BFBFBF",
"a%	c #BBBBBB",
"b%	c #BABABA",
"c%	c #B8B8B8",
"d%	c #787878",
"e%	c #5C5C5C",
"f%	c #656565",
"g%	c #636363",
"h%	c #626262",
"i%	c #616161",
"j%	c #606060",
"k%	c #5E5E5E",
"l%	c #5D5D5D",
"m%	c #5A5A5A",
"n%	c #4A4A4A",
"                                                                ",
"                        # $ % &                                 ",
"                    ' ( ) * + , - . 0         1 2               ",
"                  3 4 5 6 7 8 9 : ; < = '     > ?               ",
"                @ A B C D E F 8 G H I J K L M N O               ",
"                P Q R S T U V W X < Y Z [ ] ^ _ `               ",
"              a b c d e           f g h i j k l m               ",
"              n o p q                 r ] s t u v               ",
"              w x y z { | } ~  !!!#!$!%!&!'!(!)!*!              ",
"            +!,!-!.!0!1!2!2!3!4!5!6!7!8!9!:!;!<!=!>!            ",
"            ?!@!A!B!C!D!E!F!G!H!I!J!K!L!M!N!O!P!Q!R!S!          ",
"          T!U!V!W!X!Y!Z![!]!^!_!`!a!b!b!c!d!e!f!g!h!i!          ",
"          j!k!l!m!n!o!p!q!r!s!t!u!v!w!x!y!z!{!|!}!~! #          ",
"        !###$#%#&#'#(#)#b *#+#,#-#.#0#1#2#3#4#5#6#7#8#9#        ",
"        :#;#<#=#>#?#Y!@#A#B#C#D#E#F#G#H#I#J#K#L#M#N#O#P#        ",
"        Q#R#S#T#U#V#W#X#Y#Z#[#]#^#_#`#a#b#c#d#e#f#g#h#i#        ",
"      j#k#l#m#n#o#p#q#r#s#t#u#v#w#x#y#z#{#|#}#~# $!$#$$$%$      ",
"      &$'$($)$*$+$,$-$.$0$1$2$3$4$5$6$|#7$8$9$:$;$<$=$>$?$      ",
"      @$A$B$C$D$E$F$G$H$I$J$K$L$M$N$O$P$Q$R$S$T$u!U$V$W$X$Y$    ",
"    Z$;$[$+#]$^$_$`$a$b$c$d$e$f$g$h$i$j$k$l$x!>$m$;$n$n$T$o$    ",
"    p$h#W$'$U$n$q$^$u!h#h#r$s$t$u$v$w$x$y$z$U$=$=${$W$|$W$}$    ",
"    ~$ %|$h#>$!%!%!%>$!%#%$%%%A$&%'%(%)%>$u!u![$u!|$u!W$$%*%+%  ",
"    ,%[$;$-%-%c$c$.%;$=${$$$0%1%2%2%3%3%4%4%4%5%6%6%k#7%1%8%9%  ",
"    :%2%;%<%=%=%>%?%@%@%A%@$B%i#C%D%E%E%E%F%}$G%H%,%,%I%F%J%j#  ",
"    K%0%L%M%N%Q#,%F%C%O%@%?%>%?%@%A%B%;%P%Q%Q%=%=%@%R%C%i#J%S%  ",
"    I%1%X$D%T%?$8%H%E%i#@$@%@%A%@$O%C%=%*%>%?%?%@%@$=%M%D%?$j#  ",
"    U%1%V%*%D%M%G%}$E%C%O%A%@%@%@$O%D%=%*%=%>%?%?%A%Q%D%D%W%j#  ",
"    ,%{$<%X%Y%Y%Z%[%]%R%=%?%@%@%@$O%C%?%;%@%A%@$O%O%@%M%B%^%j#  ",
"    _%5%Z%`%X%[%a%b%b%c%]%V%*%R%Q%>%?%A%O%i#D%M%~$F%}$H%M%d%    ",
"      e%f%g%g%g%g%h%i%i%i%i%j%j%j%Z$Z$Z$k%k%l%l%l%e%e%e%m%n%    ",
"                                                                ",
"                                                                "};
